PathFileType	4	(X/Y/Z)	C:/Users/opensim2020/Desktop/walking_exp_matlab/subject06_walking22_straight_04.trc																																																																																																																																		
DataRate	CameraRate	NumFrames	NumMarkers	Units	OrigDataRate	OrigDataStartFrame	OrigNumFrames																																																																																																																														
100	100	8	44	mm	100	2239	102																																																																																																																														
Frame#	Time	LFHD			RFHD			LBHD			RBHD			C7			T10			CLAV			STRN			RBAK			LSHO			LUPA			LELB			LFRM			LWRA			LWRB			LFIN			RSHO			RUPA			RELB			RFRM			RWRA			RWRB			RFIN			LASI			RASI			LPSI			RPSI			LTHI			LKNE			LTIB			LANK			LHEE			LTOE			RTHI			RKNE			RTIB			RANK			RHEE			RTOE			*39			*40			*41			*42			*43		
		X1	Y1	Z1	X2	Y2	Z2	X3	Y3	Z3	X4	Y4	Z4	X5	Y5	Z5	X6	Y6	Z6	X7	Y7	Z7	X8	Y8	Z8	X9	Y9	Z9	X10	Y10	Z10	X11	Y11	Z11	X12	Y12	Z12	X13	Y13	Z13	X14	Y14	Z14	X15	Y15	Z15	X16	Y16	Z16	X17	Y17	Z17	X18	Y18	Z18	X19	Y19	Z19	X20	Y20	Z20	X21	Y21	Z21	X22	Y22	Z22	X23	Y23	Z23	X24	Y24	Z24	X25	Y25	Z25	X26	Y26	Z26	X27	Y27	Z27	X28	Y28	Z28	X29	Y29	Z29	X30	Y30	Z30	X31	Y31	Z31	X32	Y32	Z32	X33	Y33	Z33	X34	Y34	Z34	X35	Y35	Z35	X36	Y36	Z36	X37	Y37	Z37	X38	Y38	Z38	X39	Y39	Z39	X40	Y40	Z40	X41	Y41	Z41	X42	Y42	Z42	X43	Y43	Z43	X44	Y44	Z44
																																																																																																																																					
52	0.51	20.55763	1622.92126	891.54907	30.64711	1617.94458	1023.44495	-117.82935	1585.82349	905.33862	-105.28856	1585.16736	1034.01343	-129.13669	1424.99133	954.99847	-174.13431	1095.96826	967.49713	-22.09351	1342.37158	962.75018	11.15334	1167.38159	954.19727	-215.14223	1256.63208	1021.45367	-63.72604	1380.00745	798.50256	-32.49718	1185.45325	715.38159	-7.15704	1076.76538	695.6297	97.28309	969.77551	685.64978	209.55699	923.3866	742.48059	171.92137	877.4552	704.71606	256.98529	848.56207	709.40631	-81.88734	1375.2511	1119.67847	-188.78119	1208.09998	1201.047	-227.189	1092.73645	1219.54114	-269.18375	981.16766	1245.03259	-279.03696	826.81628	1231.7688	-331.08069	857.67816	1262.58655	-337.85565	772.60992	1270.505	-3.86241	934.04224	851.97833	8.92776	940.69952	1073.64685	-160.79401	962.7735	892.89758	-142.80527	959.45996	1059.62183	-109.76515	624.55176	809.50824	-139.46367	461.97833	836.86731	-260.79996	231.73759	849.41858	-330.66644	75.49081	898.02649	-375.9165	70.83303	942.47229	-194.70564	34.11824	900.98615	29.10295	613.34412	1146.83057	91.12585	503.03488	1122.46936	153.96951	253.39096	1124.50537	228.94563	81.26853	1088.46008	208.66815	47.40288	1038.81763	387.29761	91.1235	1101.38892	-68.79994	1675.90857	956.81921	NaN	NaN	NaN	NaN	NaN	NaN	NaN	NaN	NaN	NaN	NaN	NaN
53	0.52	34.59857	1620.83813	892.82581	44.8347	1615.5553	1024.76086	-103.65207	1583.55579	906.84204	-91.0591	1582.71509	1035.3562	-114.93825	1422.33069	955.91156	-158.55232	1093.19751	968.24548	-7.8975	1340.13013	963.54681	25.88464	1165.33582	954.27216	-200.58969	1253.62695	1021.89563	-49.83495	1378.05884	799.32129	-16.55457	1183.97095	715.9386	10.25374	1075.53467	696.24347	117.3549	971.41754	686.49268	230.4539	928.17499	743.79932	194.4716	881.22339	706.11841	279.98032	854.9245	710.95386	-67.66405	1372.59058	1120.49976	-176.07652	1206.63684	1201.63513	-215.81027	1091.72632	1220.271	-258.68701	980.52557	1245.94031	-270.21527	826.37665	1232.61145	-322.23312	857.76477	1263.33728	-329.91177	772.82654	1271.29456	11.14641	931.64166	851.30005	26.08642	938.74475	1073.52441	-145.51953	960.17383	894.02679	-126.62957	957.68243	1060.88953	-98.68793	623.12762	809.52716	-130.10312	460.6098	836.76898	-256.24628	232.92099	849.23401	-329.58444	78.11104	897.61261	-374.8548	74.40991	941.97351	-194.60634	34.09857	900.96069	45.563	611.44873	1148.2467	106.2845	500.29761	1123.65173	174.96642	252.87331	1124.7876	255.83549	82.84665	1088.2655	236.68678	48.71952	1038.5072	413.90176	97.42507	1101.78247	-54.65466	1673.63562	958.35126	NaN	NaN	NaN	NaN	NaN	NaN	NaN	NaN	NaN	NaN	NaN	NaN
54	0.53	48.71769	1618.92078	894.22046	59.07874	1613.37476	1026.04956	-89.68147	1581.76636	908.18597	-76.88313	1580.59949	1036.80994	-100.87323	1420.01514	956.90448	-142.81514	1090.56567	968.95313	6.37364	1338.19812	964.37585	40.78342	1163.6084	954.42303	-185.87381	1250.72241	1022.31934	-35.94864	1376.32568	800.20813	-0.65968	1182.69385	716.70251	27.84022	1074.64563	696.87097	136.87061	972.97668	687.58258	250.7843	932.63104	745.24622	215.99777	884.60297	707.59546	302.31973	860.315	712.85712	-53.55946	1370.13403	1121.43774	-163.26984	1205.40515	1202.25732	-203.94287	1090.72192	1221.1731	-247.71913	979.88855	1246.78125	-260.80243	825.85242	1233.22559	-312.35156	857.70184	1264.13525	-320.83911	772.84222	1272.03674	26.40978	929.31	850.82324	43.44693	937.0072	1073.34143	-130.10416	957.90643	895.28107	-109.58305	955.91229	1062.07202	-87.09547	621.6709	809.79504	-119.71236	459.2197	836.9007	-250.99852	234.37943	849.06177	-328.06375	81.24031	896.9538	-373.4426	78.67683	941.13287	-194.34612	34.09629	900.95721	63.0982	610.1524	1149.60156	122.01938	498.21741	1124.37976	194.39439	252.22519	1124.84473	279.23383	83.91113	1088.32422	261.6138	49.24688	1038.31006	437.43951	102.10721	1102.1637	-40.47952	1671.62354	959.92053	NaN	NaN	NaN	NaN	NaN	NaN	NaN	NaN	NaN	NaN	NaN	NaN
55	0.54	62.697	1617.30798	895.56268	73.31693	1611.49951	1027.422	-75.70618	1580.18176	909.74921	-62.65007	1578.75232	1038.29211	-86.67886	1417.92578	958.0116	-126.9715	1088.20007	969.62518	20.80005	1336.55127	965.25977	55.95539	1162.24146	954.60919	-171.07092	1247.98132	1022.77917	-22.04428	1374.86853	801.11584	15.17602	1181.64026	717.63354	44.96014	1074.10339	697.73029	156.02449	974.3692	688.8161	270.47311	936.63928	746.71796	236.89307	887.75159	709.15344	323.6991	865.44708	714.64648	-39.55178	1367.93298	1122.4137	-150.42036	1204.43835	1202.84607	-191.82845	1089.8479	1222.12158	-236.28441	979.23492	1247.64905	-250.45093	825.35126	1233.97559	-302.06384	857.52386	1264.84277	-310.76093	772.70105	1272.75781	41.48204	926.81531	850.0119	60.79057	935.55872	1073.23853	-114.37094	955.90491	896.61871	-91.77515	954.16931	1063.16345	-74.56898	620.29169	810.12073	-108.39402	457.87567	837.11768	-244.84195	236.13174	848.91138	-326.09708	84.99113	896.1344	-371.68658	83.74146	939.91913	-194.01163	34.065	900.97986	81.59936	609.26331	1150.70374	138.44809	496.95297	1123.78845	212.05826	251.47101	1124.47363	299.67075	83.94714	1088.39185	282.87021	49.02874	1038.31702	457.85062	104.49963	1102.49805	-26.37471	1669.88977	961.50293	NaN	NaN	NaN	NaN	NaN	NaN	NaN	NaN	NaN	NaN	NaN	NaN
56	0.55	76.6517	1615.88525	897.01019	87.45064	1609.84619	1028.85107	-61.67334	1578.80176	911.27985	-48.48737	1577.11853	1039.80139	-72.55515	1416.13721	959.24512	-110.69255	1085.95398	970.25092	35.31095	1335.10498	966.2644	71.32186	1161.0896	954.93378	-156.14391	1245.25452	1023.21667	-8.08413	1373.65967	802.11182	30.86565	1180.7998	718.74237	62.34534	1073.85059	698.76215	174.69444	975.77985	690.1994	289.56821	940.25232	748.24622	257.11765	890.55786	710.64203	344.22662	870.10779	716.4693	-25.5697	1366.04785	1123.42859	-137.51897	1203.70557	1203.38049	-179.38902	1089.17896	1223.12036	-224.42201	978.70496	1248.47131	-239.07243	824.98639	1234.60425	-289.63586	857.26337	1265.92505	-299.57999	772.4436	1273.50195	57.18056	924.65808	849.6217	78.2454	934.36102	1073.22595	-98.39698	954.13049	898.04102	-75.12537	953.37097	1064.54199	-61.23428	618.92798	810.60095	-96.3703	456.77417	837.34967	-238.17906	238.39613	848.651	-323.63147	89.41774	894.97736	-369.50735	89.67798	938.95239	-193.52995	34.21294	900.80603	100.82805	608.93329	1151.53979	156.51236	496.93524	1122.84583	228.84412	250.49323	1123.95715	316.90564	83.08965	1088.63	300.34897	47.78366	1038.26001	474.99136	104.3509	1102.43311	-12.23027	1668.37793	963.23425	NaN	NaN	NaN	NaN	NaN	NaN	NaN	NaN	NaN	NaN	NaN	NaN
57	0.56	90.628	1614.88879	898.46741	101.63013	1608.50696	1030.31287	-47.62202	1577.53564	913.01477	-34.33566	1575.68115	1041.4198	-58.25763	1414.46094	960.4054	-94.42409	1084.04626	970.96033	49.86954	1333.89502	967.30426	86.80827	1160.13904	955.35272	-141.03616	1242.67896	1023.651	5.94644	1372.71716	803.1593	46.52469	1180.23083	719.99438	79.3186	1073.3916	700.39844	192.73027	977.02856	691.69244	308.08142	943.40198	749.81525	276.27301	893.1347	712.66174	363.74283	874.04803	718.27588	-11.52388	1364.49048	1124.42456	-124.25018	1203.14392	1203.90393	-166.48682	1088.60364	1224.02686	-211.85452	978.25427	1249.41028	-227.09885	824.50342	1235.39734	-277.62787	856.91583	1266.82324	-287.51691	772.12616	1274.22986	73.13126	922.78845	849.4657	95.84079	933.64368	1073.2821	-82.01842	952.51984	899.42609	-57.76255	952.59991	1065.75671	-47.31712	617.81146	811.33423	-83.80596	455.87369	837.64197	-231.16075	241.23647	848.49048	-320.80048	94.67964	894.13074	-366.55762	96.29979	937.91595	-192.98361	34.34108	900.86115	120.58453	609.17987	1151.98804	175.53456	497.58575	1122.60706	245.41844	249.41675	1123.84448	331.21854	81.08538	1087.9281	314.19144	45.69583	1037.48706	488.94806	101.48582	1102.08936	1.73944	1667.12793	964.96088	NaN	NaN	NaN	NaN	NaN	NaN	NaN	NaN	NaN	NaN	NaN	NaN
58	0.57	104.48705	1614.06958	900.00769	115.68771	1607.39709	1031.81421	-33.61909	1576.47986	914.58478	-20.21379	1574.33484	1043.01953	-43.87792	1413.03699	961.6178	-77.87469	1082.36401	971.66327	64.73507	1332.99072	968.39209	102.63741	1159.49036	955.9519	-125.71963	1240.33203	1024.11572	20.12772	1371.99097	804.35254	62.25077	1179.94153	721.38025	95.71638	1073.54749	702.00842	210.23911	978.20526	693.36462	325.97391	946.12207	751.44226	294.96948	895.38531	714.17902	382.48022	877.44324	720.05115	2.62249	1363.24231	1125.44055	-110.56754	1202.61914	1204.5531	-153.21762	1088.23022	1224.90173	-198.81653	977.91876	1250.32336	-214.00885	824.26001	1236.35168	-264.569	856.59558	1267.68323	-274.57501	771.73041	1275.01733	89.53948	921.25116	849.66071	113.49921	933.32178	1073.58337	-65.21735	951.17487	900.76349	-39.60531	951.78949	1066.72937	-32.67614	616.83862	812.06122	-70.54444	455.20016	837.87073	-223.60745	244.52344	848.31006	-317.50143	100.30295	893.4743	-363.05698	103.70512	937.0799	-192.28525	34.58801	900.9718	140.40158	609.93695	1152.25696	195.23633	498.58102	1123.03479	261.60431	248.17836	1123.77905	342.56387	77.97408	1086.50964	325.13065	42.74657	1036.24451	500.29062	96.39086	1101.34949	15.61787	1666.00977	966.73279	NaN	NaN	NaN	NaN	NaN	NaN	NaN	NaN	NaN	NaN	NaN	NaN
59	0.58	118.4267	1613.55103	901.89825	129.63786	1606.59253	1033.29333	-19.80469	1575.6344	916.11609	-6.06907	1573.11353	1044.57874	-29.35979	1411.83887	962.85907	-61.20671	1080.90552	972.46637	79.65321	1332.2887	969.6452	118.7102	1159.08484	956.73865	-110.09235	1238.29858	1024.67615	34.44708	1371.36707	805.69812	77.89193	1179.78516	722.935	112.0789	1073.75305	703.67926	227.36537	979.21777	695.03003	343.28137	948.38434	753.138	312.75577	897.21973	716.02631	400.49768	880.23975	721.79944	17.00608	1362.24768	1126.50696	-96.587	1202.19641	1205.26599	-139.61627	1087.91553	1225.76855	-185.26288	977.62579	1251.20386	-200.24974	823.87988	1237.3761	-250.90207	856.29333	1268.47498	-260.79321	771.34851	1275.83594	106.24781	920.04675	850.10669	131.54077	933.37103	1074.07007	-47.95403	950.01575	902.01227	-21.80864	951.42535	1067.57971	-17.7782	616.01276	812.91205	-56.57681	454.60315	838.18085	-215.47823	248.34584	848.41925	-313.45459	106.68998	893.04773	-358.73077	111.83924	936.58337	-191.74373	34.73331	901.08521	160.17958	611.10632	1152.53491	215.41434	499.83676	1123.35938	277.34833	246.79599	1123.98364	351.86935	74.08284	1085.41565	333.30084	39.16835	1034.87073	509.36215	89.87333	1099.9519	29.36834	1665.10876	968.5011	NaN	NaN	NaN	NaN	NaN	NaN	NaN	NaN	NaN	NaN	NaN	NaN
